{"accessors":[{"bufferView":0,"componentType":5126,"count":900389,"max":[4.634796142578125,5.992100715637207,2.2237131595611572],"min":[-5.478586673736572,-6.070837020874023,-1.845077633857727],"type":"VEC3"},{"bufferView":1,"componentType":5126,"count":900389,"type":"VEC3"},{"bufferView":2,"componentType":5121,"count":900389,"normalized":true,"type":"VEC4"},{"bufferView":3,"componentType":5125,"count":11146091,"type":"SCALAR"},{"bufferView":4,"componentType":5125,"count":900389,"type":"VEC2"},{"bufferView":5,"componentType":5125,"count":54278,"type":"VEC4"},{"bufferView":6,"componentType":5125,"count":54279,"type":"VEC2"},{"bufferView":7,"componentType":5125,"count":108556,"type":"VEC4"}],"asset":{"extensions":{"OPF_asset_version":{"version":"1.0-draft8"}},"generator":"Pix4D","version":"2.0"},"bufferViews":[{"buffer":0,"byteLength":10804668,"target":34962},{"buffer":1,"byteLength":10804668,"target":34962},{"buffer":2,"byteLength":3601556,"target":34962},{"buffer":3,"byteLength":44584364,"target":34962},{"buffer":4,"byteLength":7203112,"target":34962},{"buffer":5,"byteLength":868448,"target":34962},{"buffer":5,"byteLength":434232,"byteOffset":868448,"target":34962},{"buffer":5,"byteLength":1736896,"byteOffset":1302680,"target":34962}],"buffers":[{"byteLength":10804668,"uri":"positions.glbin"},{"byteLength":10804668,"uri":"normals.glbin"},{"byteLength":3601556,"uri":"colors.glbin"},{"byteLength":44584364,"uri":"matchCameraIds.glbin"},{"byteLength":7203112,"uri":"matchPointIndexRanges.glbin"},{"byteLength":3039576,"uri":"partitioning.glbin"}],"extensionsRequired":["KHR_materials_unlit"],"extensionsUsed":["KHR_materials_unlit","OPF_asset_version","OPF_mesh_primitive_matches","OPF_mesh_primitive_partitioning"],"materials":[{"extensions":{"KHR_materials_unlit":{}}}],"meshes":[{"primitives":[{"attributes":{"COLOR_0":2,"NORMAL":1,"POSITION":0},"extensions":{"OPF_mesh_primitive_matches":{"cameraIds":3,"cameraUids":[13304295495179027353,15458591717055350108,91655965896726197,256228850213631809,14191897243477108237,8195407187434529698,6363487417330603120,9611079086580984943,17893124603969107108,3070561561991089871,5062011748613584850,5997487360246288585,10751038952158662935,5014191842331346677,1602878152535673956,5569674043129373598,7025764530727860588,10180297059589609863,10368099088601386163,1426975090896990576,5384018900846765664,3416821555774801616,15126718574572570187,5012623791356291362,8202370550207652599,7020077090262382134,5205266517430484880,6169151863062097158,699346332133886056,10441193768399899234,5017697876412023874,13295728547232356497,9307357105707669922,3564542014703359356,18308123054467993077,7242573526867456291,443550487275828219,2818436854750270230,16342337810618611090,7462490557424247521,2758327883234107567,1045080067729203764,6141168291212423414,2425726987162171114,12037963205260720344,18332471204957903644,11393575988036884772,3325417132199517645,14814903344798698639,1562730579828714353,16159986524605656893,15939898151974404782,2681866958797277705,50831701419349831,10126897395482260096,4119785459834500641,8006829567475394,17359382405742264112,8023194257328118388,1709747389413038356,508531944442378143,2924756790489133564,10376908952260234856,5132472326627095371,16834840607947890379,999611379118298725,9941983534586402087,15013554157303168357,15188120316712683122,6323583119663460085,7314723194853693265,4642249599195481399,517724717638374178,11584066346540176851,8213750181708343421,1465739274781252629,1326753415597930867,7521376587965546998,1667715411192284653,3031529783552570775,14747740867565543784,16899714088795104246,11815976053359245897,13364691803400907678,3701233681959871746,1111297615172913932,2884288615790474569,1759442319623463508,11792712961520131756,11558392479823714659,1069005845400084289,14824261718586244562,1331868185871163124,6793416680308984413,5854084250544421380,132321233051259959,16365114391876863710,1152036264098321286,9910976613673219864,18002828127270277286,617618817771949923,7245446885894594293,8470621011410701637,3916830965960353459,12734640263383581655,4230591766864316426,9509094042794010769,15868813057990147785,7760874998506923538,18195325833008350589,2247314549364115273,2413970507774326332,9136494845757293076,14161842800164496191,9060443894112860209,12398184187849300042,6504063916275092430,16389005899773854033,3119376737053944990,2632262458555732452,16296096057276300428,15325247857935430728,13757756077834964852,2649377802690214933,3750422037794988544,14360640901369135645,13461715223199863879,16391182141136668592,13508880328774374858,8858127454936548311,5324547038011760530,5103430599414223739,7859423068220413672,1123561134391465527,17034177798709122261,5243642971734996931,16010666494879025752,13987936497046560759,17737108197611332304,10379289135829593512,1443730477861503980,14716457887481605926,14019624743093825621,17952477758965365724,1081420666392521179,12031975876372486096,3186547491046538758,14533809382176459193,16544020553792563840,14451764496240775540,369403914924360801,10412513170262275914,9155228555068819915,8588612984349423230,15952485790127233688,12532173324871855975,14976738867446509885,11903960509149852186,9468614025139701907,16399747457894280270,13307369087096840037,10803056678646095226,5798683276135444738,6866952912689925278,279540999512479972,9523758691851511754,2256772499438886728,17812005375963404754,6699881857651543754,1454504789084470206,14085715942878044748,16411026909172684948,17934317591149547899,16113764553234535013,13007265958742495953,4565447205314058246,10946595606549870443,18119371973226409707,12483453229970570141,2184551699890280984,15900251982473935075,10557035233924277653,15916177609197003208,8562282404417158080,5676113498654121028,10648376578943197917,5185396337835561220,11992671659933499674,3034476615629964959,4908204568067567345,14256258168318973558,5235981653251820423,10381171734381763754,797357408661618458,174963021473788464,2264265857554025641,1159215088195950175,15954543584485627950,476404379124033036,5601659006124370965,4983670153546680135,18302503684260981700,10859890409988144908,7764764589076816720,7410160046595302013,2086376010399808920,3503923555334742196,3987114442017591727,4101507811761181184,2980406224165405914,3233837179700897721,12122624339213552959,7183884482124472255,11590067150907948204,7523628352587203952,1727877272213630080,7216563080301090625,15903719939218213210,16070093004180638701,9417912000071874643,10515306097073789679,2278666955783297683,4113589001217118700,12561935005001337415,8771616609400674366,7239588475176660737,657618672726552138,13218275429796389539,6618409201744480185,5586336520374090968,16596366995301467164,16434684337689918860,11094919424571747631,16745500137100145895,160879295168710762,5020623531059716078,15946320872034844573,8408258152948229067,5606301553851752939,3930464182174705551,4983554974238393246,3899096931426242029,721632822882538451,3077518869664451699,12988281238499817610,8032560221088267104,9489317864346180432,5092092608597057037,10206055979305343329,12148855698754999692,1283902897078931964,7419976869717376549,6068926196489244232,10669816414464188236,6982012395429155499,14481844183337648847,16630209301855944998,13996002528151979394,10479368920649650321,3371245022706524626,4192704555462711073,16163739650467756184,15609596588551626474,14052761882825324498,1507458743344290213,9928365954780222756,5979530233969788903,14789668011682249081,13665948458982074980,11308443288824931845,3947801653809610025,15283084086740491734,3320449566752678505],"pointIndexRanges":4},"OPF_mesh_primitive_partitioning":{"boundingBox":{"max":[5.609574317932129,5.992101669311523,9.23652172088623],"min":[-6.453364372253418,-6.070837497711182,-2.8264167308807373]},"childrenIndexing":6,"nodeCoordinates":5,"nodeLevelIndexing":[0,1,5,32,168,589,1778,6422,16606,38077,51907,54278],"perNodeChunkIndexRanges":7}},"material":0,"mode":0}]}],"nodes":[{"matrix":[1.0,0.0,0.0,0.0,0.0,0.0,-1.0,0.0,0.0,1.0,0.0,0.0,0.0,0.0,0.0,1.0],"mesh":0}],"scene":0,"scenes":[{"nodes":[0]}]}